<svg xmlns="http://www.w3.org/2000/svg" viewBox="0 0 319.15 92"><defs><style>.cls-1{fill:#fff;}</style></defs><title>Asset 1</title><g id="Layer_2" data-name="Layer 2"><g id="Object"><g id="_Group_" data-name="&lt;Group&gt;"><rect id="_Path_" data-name="&lt;Path&gt;" class="cls-1" x="194.71" y="77.87" width="92.19" height="0.75"/><path id="_Compound_Path_" data-name="&lt;Compound Path&gt;" class="cls-1" d="M199.62,7.64a8.85,8.85,0,0,0-.15-1A4.69,4.69,0,0,0,198.78,5q-.51-.75-1.2-1.65a1.52,1.52,0,0,0-.5-.6c-.2-.14-.44-.3-.7-.5.06,0-.12-.15-.55-.45A3.19,3.19,0,0,1,195,1a11.85,11.85,0,0,0-1.8-.45c-.6-.1-1.2-.22-1.8-.35s-1-.12-1.5-.15-1,0-1.49,0-1.15,0-1.85.05-1.32.08-1.85.15a1.57,1.57,0,0,0-.5.1,1.57,1.57,0,0,1-.5.1l-2,.4a6.85,6.85,0,0,0-1.79.6,31.49,31.49,0,0,0-3.6,1.4,36.35,36.35,0,0,0-3.5,1.79,28.76,28.76,0,0,0-3.69,1.8h.1l-3,1.9-4.3,2.9-2.59,1.9c-2.14,1.53-4.23,3.14-6.3,4.84s-4.06,3.45-6,5.25-3.63,3.69-5.49,5.69c-1.15,1.22-2.24,2.43-3.31,3.63l-3.29,4c-3.35.51-6.66.89-9.77,1.26-15.29,1.84-30.69,2.62-46,4a224.41,224.41,0,0,0-42.78,7.77A140.65,140.65,0,0,0,17,56.33C11.72,58.76,5.75,61.85,2.24,66.68c-2.78,3.81-3.4,9.72.62,13,3.4,2.74,8.4,2.18,12.32,1.13a1.51,1.51,0,0,0-.8-2.91C10.16,79,3.13,79.46,3,73.31c-.18-6.48,8.27-10.76,13.15-13.21,11.53-5.81,24.71-9.17,37.3-11.75,25.82-5.29,52.42-4.81,78.47-8.49l.24,0-.23.28c-.19.25-.38.51-.55.76a34,34,0,0,0-2.4,3.19l-2.2,3.3-2.25,3.5c-.76,1.2-1.45,2.36-2,3.49-.34.67-.65,1.27-.95,1.8s-.59,1.07-.85,1.6a7.49,7.49,0,0,0-.75,1.85c-.17.63-.35,1.21-.55,1.75s-.65,1.2-1,1.79a7.34,7.34,0,0,0-.65,2l-.7,2a7.61,7.61,0,0,0-.6,1.8,17.41,17.41,0,0,0-.3,1.95c-.06.7-.13,1.44-.2,2.24V74a4.06,4.06,0,0,0,.1.9,1.83,1.83,0,0,0,0,.4,1.37,1.37,0,0,1,0,.4v.5a1.24,1.24,0,0,0,.1.5,16.8,16.8,0,0,0,1.3,3.3,2.59,2.59,0,0,0,.4.6,5.56,5.56,0,0,1,.5.6,2.5,2.5,0,0,0,.6.89l.6.6c.53.34,1,.67,1.5,1a4.33,4.33,0,0,0,1.39.7h-.09a7.65,7.65,0,0,0,3.39,1.3,7.36,7.36,0,0,0,1.6.25c.6,0,1.16.05,1.7.05h.5a18.9,18.9,0,0,0,3.29-.3,3.65,3.65,0,0,0,.65,0l.35,0,1.95-.45a9,9,0,0,0,1.35-.35l1.9-.4,2-.7L143,83c.7-.26,1.32-.53,1.85-.79l5.7-2.7c.6-.34,1.09-.6,1.49-.8s.79-.4,1.15-.6l1.1-.6,1.45-.8,6.79-4.4h-.2a2.36,2.36,0,0,0,.4-.24,3.23,3.23,0,0,0,.4-.35l.7-.6.8-.5,1-.9,1.5-1.3.8-.8c.2-.13.45-.32.75-.55a2.25,2.25,0,0,0,.65-.75c.4-.26.6-.53.6-.8l.5-.4a1,1,0,0,1,.05-.35.92.92,0,0,0,0-.25c0-.06,0-.11,0-.17a66.69,66.69,0,0,0-7.42,4.28l-.57.49-2,1.5-1.3.89.1-.09-3.6,2.49-4.3,2.4a11,11,0,0,1-2.29,1.2,12.31,12.31,0,0,0-2,.9l-2.2,1.1a4.06,4.06,0,0,1-1.05.45,9.23,9.23,0,0,0-1,.35l-1.49.6a9,9,0,0,1-1.6.6l-1.6.39-2.2.5-1.2.3-3.29.4h-2.1l-1.55-.2a5.3,5.3,0,0,1-1.45-.4,9.75,9.75,0,0,1-2.6-1,13.73,13.73,0,0,1-2.19-1.55l-.4-.5-1-1.5h.1a5.43,5.43,0,0,1-.7-1.9,11,11,0,0,1-.3-1.1,5.35,5.35,0,0,1-.1-1.1v-1.4l.6-3.59c.26-.87.55-1.75.85-2.65s.61-1.81,1-2.75c.33-.79.65-1.51,1-2.14s.61-1.32.94-2L124,58a6.52,6.52,0,0,0,.8-1.3,21.3,21.3,0,0,1,1.2-2l1.8-3.39-.1.1,2.2-3.2L132,45l3.7-4.59a6.55,6.55,0,0,0,.9-1.15l.06-.09a69.28,69.28,0,0,0,17.1-4.75c0,.06-.05.12-.08.19a.82.82,0,0,1-.1.4,1,1,0,0,0-.1.4,1.22,1.22,0,0,0-.3.9.62.62,0,0,0-.1.4v2a5.15,5.15,0,0,0,.1.9,4,4,0,0,0,.3.9,5,5,0,0,1,.4.7,3.41,3.41,0,0,0,.6.8,6.2,6.2,0,0,0,1.75,1.14,10.5,10.5,0,0,0,1.75.56,2.57,2.57,0,0,1,.45,0,1.82,1.82,0,0,0,.45,0h.7a10.41,10.41,0,0,0,1.14,0c.37,0,.72-.08,1.05-.14a14.72,14.72,0,0,0,2.1-.51c.6-.19,1.17-.36,1.7-.49l3.7-1.5a16.16,16.16,0,0,0,3.59-2l1.3-.7-.1.1,2.2-1.4,3.2-2.3a1.18,1.18,0,0,1,.3-.2,1.25,1.25,0,0,1,.19-.15.55.55,0,0,0,.2-.15l2.5-2.09,3.8-3.2,2.1-1.8,2.44-2.7c.9-1,1.88-2.16,2.95-3.49l.4-.4a1.74,1.74,0,0,0,.3-.4l-.1.1,1.7-2.4,2-3.39.6-1.6a6.28,6.28,0,0,0,.59-2.1,6.66,6.66,0,0,0,.2-2.1A9.68,9.68,0,0,0,199.62,7.64Zm-2.09.7s-.05.12-.05.25V9l-.2,1.1a6,6,0,0,1-.8,1.9l-.5.9a.45.45,0,0,1-.1.3.26.26,0,0,0-.1.2,26.55,26.55,0,0,1-3.45,5.39c-1.36,1.67-2.78,3.26-4.24,4.8-1.74,1.73-3.55,3.41-5.45,5a71.05,71.05,0,0,1-5.74,4.45c-.74.53-1.63,1.13-2.7,1.79s-2.26,1.4-3.6,2.2a21.26,21.26,0,0,1-3.34,1.9c-1.17.53-2.22,1-3.15,1.3s-1.86.5-2.8.7a13.24,13.24,0,0,1-2.79.3,2.79,2.79,0,0,1-.8-.1,3.68,3.68,0,0,1-.5-.1l-1.1-.4-.4-.2-.4-.5v-.1a1.8,1.8,0,0,0-.1-.6.49.49,0,0,0-.05-.2.78.78,0,0,1,0-.3,1.63,1.63,0,0,1-.2-.7,1,1,0,0,1,.2-.7.78.78,0,0,1,0-.3.46.46,0,0,0,.05-.2,11.26,11.26,0,0,0,.3-1.4,7.48,7.48,0,0,1,.6-1.8c.11-.17.26-.4.42-.67A29.72,29.72,0,0,0,164,27.23a.21.21,0,0,0,.08-.06.23.23,0,0,0,.07-.11c.19-.2.38-.4.56-.62l.27-.22a2.92,2.92,0,0,1,.4-.25l.8-.7.7-.6.2-.4a.85.85,0,0,1,.15-.34.92.92,0,0,0,.15-.45v-.7c-.14-.27-.25-.42-.35-.45a1,1,0,0,0-.35,0h-1.1a2,2,0,0,0-1.2.3l-1.8.9-1.2.9-.89.89a1.16,1.16,0,0,0-.4.4.32.32,0,0,1-.3.2c-.14,0-.27.14-.4.4a4,4,0,0,0-.45.55,4.3,4.3,0,0,1-.45.55l-.8,1-.6.77c-5.11,3.4-11.32,5.3-17.62,6.53l.69-.82,2-2.37,3.91-3.91c.8-.93,1.66-1.85,2.6-2.75s1.9-1.78,2.89-2.64,2-1.84,3-2.7,2-1.7,3-2.5,1.86-1.43,2.8-2.1,1.86-1.36,2.79-2.09l-.1.2.6-.6,2.9-1.85c1-.63,2-1.25,3-1.85l1.19-.9V9l1.85-1.15a21.21,21.21,0,0,1,2.15-1.15l1.3-.5a20,20,0,0,1,5.49-2.49,20,20,0,0,1,3.5-.85c1.13-.17,2.26-.29,3.4-.35h.8a2.94,2.94,0,0,1,.59,0,4.79,4.79,0,0,0,.7.05,17.8,17.8,0,0,1,3.1.7,1.57,1.57,0,0,1,.5.1,8.83,8.83,0,0,1,.95.55,2.84,2.84,0,0,1,.75.64l.5.41a.87.87,0,0,0,.3.34,1.77,1.77,0,0,1,.4.55l.4,1.2v.5a1.33,1.33,0,0,0,.1.6A.21.21,0,0,1,197.53,8.34Z"/><g id="_Group_2" data-name="&lt;Group&gt;"><path id="_Compound_Path_2" data-name="&lt;Compound Path&gt;" class="cls-1" d="M203.85,72.67a2.23,2.23,0,0,0,1.31-.39,2.3,2.3,0,0,0,.85-1h.83a3.09,3.09,0,0,1-1.15,1.56,3.39,3.39,0,0,1-2,.62,3.19,3.19,0,0,1-2.49-1,4,4,0,0,1,0-5.09,3.19,3.19,0,0,1,2.49-1,3.39,3.39,0,0,1,2,.62,3.07,3.07,0,0,1,1.15,1.57H206a2.33,2.33,0,0,0-.85-1,2.29,2.29,0,0,0-1.31-.38,3,3,0,0,0-1.25.22,2.24,2.24,0,0,0-.84.59,3.26,3.26,0,0,0,0,4A2.65,2.65,0,0,0,203.85,72.67Z"/><path id="_Compound_Path_3" data-name="&lt;Compound Path&gt;" class="cls-1" d="M210.87,68v.8h-.1a1.7,1.7,0,0,0-1.39.68,2.51,2.51,0,0,0-.51,1.57v2.33h-.8V68.06h.8v1.3a1.92,1.92,0,0,1,1.1-1.22,2,2,0,0,1,.85-.17Z"/><path id="_Compound_Path_4" data-name="&lt;Compound Path&gt;" class="cls-1" d="M214.16,72.72a1.61,1.61,0,0,0,1.54-.89h.87a2.44,2.44,0,0,1-2.42,1.61,2.59,2.59,0,0,1-2-.8,3,3,0,0,1,0-3.87,2.73,2.73,0,0,1,3.86,0,2.76,2.76,0,0,1,.7,1.93V71h-4.44a2,2,0,0,0,.58,1.21A1.77,1.77,0,0,0,214.16,72.72Zm-.06-4a1.72,1.72,0,0,0-1.23.46,1.86,1.86,0,0,0-.57,1.13h3.6a1.86,1.86,0,0,0-.57-1.13A1.72,1.72,0,0,0,214.1,68.69Z"/><path id="_Compound_Path_5" data-name="&lt;Compound Path&gt;" class="cls-1" d="M222.05,72.51a2.16,2.16,0,0,1-1.9.93,2.4,2.4,0,0,1-1.86-.8,3,3,0,0,1,0-3.87,2.45,2.45,0,0,1,1.91-.8,2.13,2.13,0,0,1,1.85.94v-.85h.79v5.29h-.79Zm-1.79.21a1.66,1.66,0,0,0,1.35-.6,2.33,2.33,0,0,0,0-2.83,1.66,1.66,0,0,0-1.35-.6,1.75,1.75,0,0,0-1.38.6,2.25,2.25,0,0,0,0,2.83A1.75,1.75,0,0,0,220.26,72.72Z"/><path id="_Compound_Path_6" data-name="&lt;Compound Path&gt;" class="cls-1" d="M225,73.35V68.76h-1.08v-.7H225v-1.9h.8v1.9H227v.7H225.8v4.59Z"/><path id="_Compound_Path_7" data-name="&lt;Compound Path&gt;" class="cls-1" d="M228.92,66.13v1h-.86v-1Zm-.82,1.93h.79v5.29h-.79Z"/><path id="_Compound_Path_8" data-name="&lt;Compound Path&gt;" class="cls-1" d="M234.92,68.06l-2.07,5.29h-.93l-2.08-5.29h.87l1.68,4.45,1.66-4.45Z"/><path id="_Compound_Path_9" data-name="&lt;Compound Path&gt;" class="cls-1" d="M238.17,72.72a1.61,1.61,0,0,0,1.54-.89h.87A2.56,2.56,0,0,1,239.7,73a2.49,2.49,0,0,1-1.54.45,2.56,2.56,0,0,1-1.95-.8,3,3,0,0,1,0-3.87,2.73,2.73,0,0,1,3.86,0,2.76,2.76,0,0,1,.7,1.93V71H236.3a1.9,1.9,0,0,0,.58,1.21A1.77,1.77,0,0,0,238.17,72.72Zm-.06-4a1.72,1.72,0,0,0-1.23.46,1.86,1.86,0,0,0-.57,1.13h3.6a1.86,1.86,0,0,0-.57-1.13A1.72,1.72,0,0,0,238.11,68.69Z"/><path id="_Compound_Path_10" data-name="&lt;Compound Path&gt;" class="cls-1" d="M245.35,73.35h-.79v-7h3.16a2.49,2.49,0,0,1,1.77.61,2.17,2.17,0,0,1,.64,1.65,2.1,2.1,0,0,1-.65,1.64,2.45,2.45,0,0,1-1.76.61h-2.37Zm0-6.26v3h2.31a1.72,1.72,0,0,0,1.25-.4,1.44,1.44,0,0,0,.43-1.11,1.4,1.4,0,0,0-.43-1.1,1.73,1.73,0,0,0-1.25-.41Z"/><path id="_Compound_Path_11" data-name="&lt;Compound Path&gt;" class="cls-1" d="M254.05,68v.8H254a1.72,1.72,0,0,0-1.4.68,2.51,2.51,0,0,0-.51,1.57v2.33h-.79V68.06h.79v1.3a2,2,0,0,1,1.1-1.22A2,2,0,0,1,254,68Z"/><path id="_Compound_Path_12" data-name="&lt;Compound Path&gt;" class="cls-1" d="M257.28,68a2.52,2.52,0,0,1,1.93.8,3,3,0,0,1,0,3.87,2.72,2.72,0,0,1-3.85,0,3,3,0,0,1,0-3.87A2.5,2.5,0,0,1,257.28,68Zm0,4.75a1.66,1.66,0,0,0,1.36-.6,2.33,2.33,0,0,0,0-2.83,1.83,1.83,0,0,0-2.71,0,2.33,2.33,0,0,0,0,2.83A1.66,1.66,0,0,0,257.28,72.72Z"/><path id="_Compound_Path_13" data-name="&lt;Compound Path&gt;" class="cls-1" d="M263.62,72.72a1.49,1.49,0,0,0,.9-.29,1.67,1.67,0,0,0,.57-.74H266a2.42,2.42,0,0,1-.89,1.26,2.65,2.65,0,0,1-1.61.49,2.47,2.47,0,0,1-1.9-.8,3,3,0,0,1,0-3.87,2.47,2.47,0,0,1,1.9-.8,2.65,2.65,0,0,1,1.61.49,2.42,2.42,0,0,1,.89,1.26h-.86a1.67,1.67,0,0,0-.57-.74,1.49,1.49,0,0,0-.9-.29,2.16,2.16,0,0,0-.86.16,1.67,1.67,0,0,0-.6.44,2.19,2.19,0,0,0,0,2.83A1.84,1.84,0,0,0,263.62,72.72Z"/><path id="_Compound_Path_14" data-name="&lt;Compound Path&gt;" class="cls-1" d="M269.51,72.72a1.63,1.63,0,0,0,1.54-.89h.86a2.42,2.42,0,0,1-2.41,1.61,2.56,2.56,0,0,1-1.95-.8,3,3,0,0,1,0-3.87,2.72,2.72,0,0,1,3.85,0,2.71,2.71,0,0,1,.7,1.93V71h-4.44a2,2,0,0,0,.59,1.21A1.77,1.77,0,0,0,269.51,72.72Zm-.06-4a1.72,1.72,0,0,0-1.23.46,1.86,1.86,0,0,0-.57,1.13h3.6a1.86,1.86,0,0,0-.57-1.13A1.76,1.76,0,0,0,269.45,68.69Z"/><path id="_Compound_Path_15" data-name="&lt;Compound Path&gt;" class="cls-1" d="M276.38,69.48c-.08-.56-.52-.83-1.33-.83s-1.23.25-1.23.76a.53.53,0,0,0,.26.48,2.31,2.31,0,0,0,.65.27,8.43,8.43,0,0,0,.86.2,3.82,3.82,0,0,1,.85.26,1.59,1.59,0,0,1,.65.45,1.13,1.13,0,0,1,.26.78,1.35,1.35,0,0,1-.58,1.18,2.74,2.74,0,0,1-1.58.41,2.55,2.55,0,0,1-1.69-.53,1.63,1.63,0,0,1-.61-1.22h.83a1.1,1.1,0,0,0,.82,1,2.15,2.15,0,0,0,.55.08,3.84,3.84,0,0,0,.5,0,1.83,1.83,0,0,0,.46-.12.7.7,0,0,0,.51-.69.57.57,0,0,0-.26-.5,2.38,2.38,0,0,0-.66-.29c-.26-.07-.54-.14-.85-.2a4.22,4.22,0,0,1-.85-.25,1.76,1.76,0,0,1-.65-.43,1,1,0,0,1-.26-.76,1.32,1.32,0,0,1,.52-1.12,2.52,2.52,0,0,1,1.55-.4,2.34,2.34,0,0,1,1.54.47,1.52,1.52,0,0,1,.54,1Z"/><path id="_Compound_Path_16" data-name="&lt;Compound Path&gt;" class="cls-1" d="M281.69,69.48c-.07-.56-.51-.83-1.33-.83s-1.22.25-1.22.76a.53.53,0,0,0,.26.48,2.31,2.31,0,0,0,.65.27c.26.08.55.14.85.2a3.75,3.75,0,0,1,.86.26,1.59,1.59,0,0,1,.65.45,1.13,1.13,0,0,1,.26.78,1.37,1.37,0,0,1-.58,1.18,2.74,2.74,0,0,1-1.58.41,2.55,2.55,0,0,1-1.69-.53,1.63,1.63,0,0,1-.61-1.22H279a1.11,1.11,0,0,0,.83,1,2.09,2.09,0,0,0,.55.08,4,4,0,0,0,.5,0,1.76,1.76,0,0,0,.45-.12.7.7,0,0,0,.51-.69.55.55,0,0,0-.26-.5,2.31,2.31,0,0,0-.65-.29c-.26-.07-.54-.14-.85-.2a4.22,4.22,0,0,1-.85-.25,1.76,1.76,0,0,1-.65-.43,1,1,0,0,1-.26-.76,1.32,1.32,0,0,1,.52-1.12,2.52,2.52,0,0,1,1.55-.4,2.36,2.36,0,0,1,1.54.47,1.52,1.52,0,0,1,.54,1Z"/></g><g id="_Group_3" data-name="&lt;Group&gt;"><path id="_Compound_Path_17" data-name="&lt;Compound Path&gt;" class="cls-1" d="M225.51,82.8a3.15,3.15,0,0,1,1.21.24,3.11,3.11,0,0,1,1,.69,3.87,3.87,0,0,1,0,5.15,3,3,0,0,1-1,.7,3.15,3.15,0,0,1-1.21.24h-3v-7Zm0,6.26a2.25,2.25,0,0,0,1.79-.81,3.14,3.14,0,0,0,0-3.88,2.25,2.25,0,0,0-1.79-.82h-2.13v5.51Z"/><path id="_Compound_Path_18" data-name="&lt;Compound Path&gt;" class="cls-1" d="M232.42,89.18a1.6,1.6,0,0,0,1.53-.89h.87a2.42,2.42,0,0,1-2.41,1.61,2.55,2.55,0,0,1-1.95-.79,3,3,0,0,1,0-3.88,2.72,2.72,0,0,1,3.85,0,2.74,2.74,0,0,1,.7,1.94v.31h-4.44a1.91,1.91,0,0,0,.59,1.21A1.76,1.76,0,0,0,232.42,89.18Zm-.07-4a1.76,1.76,0,0,0-1.22.46,1.85,1.85,0,0,0-.58,1.13h3.61a2,2,0,0,0-.58-1.13A1.77,1.77,0,0,0,232.35,85.15Z"/><path id="_Compound_Path_19" data-name="&lt;Compound Path&gt;" class="cls-1" d="M239.28,85.94c-.07-.55-.51-.83-1.33-.83s-1.22.26-1.22.76a.55.55,0,0,0,.26.49,2.31,2.31,0,0,0,.65.27c.26.07.55.13.85.19a4.54,4.54,0,0,1,.86.26,1.89,1.89,0,0,1,.65.45,1.13,1.13,0,0,1,.26.78,1.35,1.35,0,0,1-.59,1.18,2.68,2.68,0,0,1-1.57.41,2.55,2.55,0,0,1-1.69-.53,1.6,1.6,0,0,1-.61-1.22h.82a1.11,1.11,0,0,0,.83,1,2,2,0,0,0,.55.08,4,4,0,0,0,.5,0,1.76,1.76,0,0,0,.45-.12.7.7,0,0,0,.51-.69.56.56,0,0,0-.26-.5,2.31,2.31,0,0,0-.65-.28,8.13,8.13,0,0,0-.85-.21,5,5,0,0,1-.85-.24,2,2,0,0,1-.66-.44,1.07,1.07,0,0,1-.25-.76,1.33,1.33,0,0,1,.52-1.12,2.58,2.58,0,0,1,1.55-.4,2.36,2.36,0,0,1,1.54.47,1.54,1.54,0,0,1,.54,1Z"/><path id="_Compound_Path_20" data-name="&lt;Compound Path&gt;" class="cls-1" d="M242.31,82.59v1h-.86v-1Zm-.82,1.93h.79v5.3h-.79Z"/><path id="_Compound_Path_21" data-name="&lt;Compound Path&gt;" class="cls-1" d="M248,85.37v-.85h.8v5.14a2.26,2.26,0,0,1-.65,1.74,2.5,2.5,0,0,1-1.76.6,3,3,0,0,1-1.72-.43,2.09,2.09,0,0,1-.84-1.12h.88a1.47,1.47,0,0,0,1.54.83,1.78,1.78,0,0,0,1.34-.43A1.74,1.74,0,0,0,248,89.6v-.73a2.15,2.15,0,0,1-1.89.95,2.43,2.43,0,0,1-1.87-.79,2.94,2.94,0,0,1,0-3.81,2.46,2.46,0,0,1,1.92-.79A2.06,2.06,0,0,1,248,85.37Zm-1.79,3.72a1.86,1.86,0,0,0,.77-.15,1.77,1.77,0,0,0,.59-.42,2.31,2.31,0,0,0,0-2.79,1.73,1.73,0,0,0-1.36-.58,1.76,1.76,0,0,0-1.38.58,2.23,2.23,0,0,0,0,2.79A1.79,1.79,0,0,0,246.21,89.09Z"/><path id="_Compound_Path_22" data-name="&lt;Compound Path&gt;" class="cls-1" d="M251.18,84.52v.82a2.53,2.53,0,0,1,.7-.64,1.67,1.67,0,0,1,.94-.27,2.44,2.44,0,0,1,.91.15,1.8,1.8,0,0,1,.67.45,2.27,2.27,0,0,1,.66,1.7v3.09h-.8V86.75a1.6,1.6,0,0,0-.41-1.16,1.42,1.42,0,0,0-1.07-.44,1.57,1.57,0,0,0-1.6,1.61v3.06h-.79v-5.3Z"/></g><g id="_Group_4" data-name="&lt;Group&gt;"><path id="_Compound_Path_23" data-name="&lt;Compound Path&gt;" class="cls-1" d="M189.78,42.68A1.28,1.28,0,0,0,190,43a1,1,0,0,1,.15.65,1.83,1.83,0,0,1-.36,1.1c-.23.34-.45.67-.65,1l-.8,1.3-.5.6.2-.1-.6.9-.6.5,1.4-.5,1.91-.8,1-.3a.25.25,0,0,0,.15,0,.21.21,0,0,1,.15-.05.56.56,0,0,1,.5-.15,5.56,5.56,0,0,0,.8,0,.49.49,0,0,1,.45.35,1.54,1.54,0,0,0,.36.55v.4a1.16,1.16,0,0,1-.11.81,2,2,0,0,0-.2.9l-.2.2-.5.8-.7.8-1.5,1.61L187.68,57a3.56,3.56,0,0,0-.5.7c-.2.34-.37.6-.5.8l-.41,1.31V60a.35.35,0,0,0,.31.3l.8.1h.35a2.63,2.63,0,0,0,.65-.2,1.31,1.31,0,0,0,.35-.3c0-.07.25-.1.65-.1a3.35,3.35,0,0,1,.4-.31,1,1,0,0,1,.51-.2l.8-.3a4.92,4.92,0,0,1,.75-.6c.3-.2.38-.23.25-.1l1.61-1a16.52,16.52,0,0,0,2.15-1.41c.7-.53,1.42-1.06,2.16-1.6l3-2.51.75-.6a4.41,4.41,0,0,0,.45-.4l.2-.2.6-.5a4.41,4.41,0,0,1,.5-.6,1.09,1.09,0,0,1,.81-.3c.73,0,.95.3.65.9a7.47,7.47,0,0,1-1,1.5l-.8.6a1.1,1.1,0,0,0-.35.3,3,3,0,0,0-.25.41l-.6.4c-.27.27-.54.55-.8.85a2.36,2.36,0,0,1-.91.65,1.92,1.92,0,0,0-.7.45,2.62,2.62,0,0,1-.3.35l-1.2,1a23.07,23.07,0,0,1-3.66,2.5c-1,.54-1.89,1-2.56,1.41l-1.2.8a3,3,0,0,1-1.11.5l-1.4.5-1.5.2-.41-.2a.79.79,0,0,1-.5-.1,1.09,1.09,0,0,1-.7-.4l-.5-.35a.63.63,0,0,1-.2-.55l-.2-.6.4-1.71a.86.86,0,0,1,.3-.6,10.58,10.58,0,0,1,1.2-2c.14-.2.3-.43.51-.7a12.93,12.93,0,0,1,1.2-1.5l.8-1a2.41,2.41,0,0,0,.9-1l.5-.6-.1.2.71-1.1-.71.3A6.56,6.56,0,0,1,189,51a7,7,0,0,1-.95.25l-1.1.3-.61.2a2.11,2.11,0,0,1-.7.1l-1.6-.2a1.79,1.79,0,0,1-.8-1.5.29.29,0,0,1-.1-.2v-.2a9.29,9.29,0,0,1,.9-2.81l1.3-1.91,2.41-2.3a4.28,4.28,0,0,0,.9-.61h.5Zm-2,2.2a10.43,10.43,0,0,0-1.05,1.31,11.37,11.37,0,0,0-.86,1.3,5.26,5.26,0,0,0-.6,1.5c0,.07.17-.16.5-.7a12.37,12.37,0,0,0,.7-1.2.29.29,0,0,1,.11-.2l.3-.3Z"/><path id="_Compound_Path_24" data-name="&lt;Compound Path&gt;" class="cls-1" d="M212.05,42.38c.2,0,.46.16.8.5a.46.46,0,0,0,.3.25c.13,0,.2.15.2.35v.8a.71.71,0,0,1,0,.3,1.6,1.6,0,0,0-.05.5c-.07,0-.1.1-.1.3l-1.1,1.41-1.31,1.4-.4.2a2.13,2.13,0,0,1-1.1.91l-.2.3-.4.3a4.73,4.73,0,0,0-.55.3l-.55.3a10.16,10.16,0,0,1-2,1.2c-.37.14-.69.27-1,.4l-.2.3-.71.61c-.06.13-.21.4-.45.8a3.24,3.24,0,0,0-.35.7,2.61,2.61,0,0,1-.25.45.25.25,0,0,0,0,.15,2.11,2.11,0,0,1-.1.7,1.57,1.57,0,0,0-.1.51l.2.9a.42.42,0,0,0,0,.25,1.53,1.53,0,0,1,.15.25l.2.3q0-.09.3,0a1.55,1.55,0,0,0,.4.1h.61c.6-.13,1-.22,1.35-.25a9.09,9.09,0,0,0,1.45-.35l2.31-.9a.4.4,0,0,0,.25-.15.4.4,0,0,1,.25-.15h.1l.2-.1a.58.58,0,0,1,.4-.21,4.24,4.24,0,0,1,.86-.55c.23-.1.48-.21.75-.35l.9-.5.9-.6,1.31-.8.7-.61.4-.2.9-.5,1.81-1.4.7-.5c.13-.07.4-.24.8-.5s.5-.37.3-.3l1-.91h.2a.2.2,0,0,0,.15,0,.4.4,0,0,1,.25-.05c.33.2.52.4.55.6a5.61,5.61,0,0,1,.05.81.86.86,0,0,1-.3.6l-.5.5c-.07,0-.2.1-.4.3a1.57,1.57,0,0,1-.51.2l-2.7,2.21c-.14.13-.24.2-.3.2a.4.4,0,0,1-.3.1l-.61.5a.48.48,0,0,0-.25.1,1.9,1.9,0,0,1-.35.2l.1-.1c.2-.2.05-.08-.45.35a6.16,6.16,0,0,1-1.15.85l-.7.4-.71.31-.6.5-.7.5-.3.1a9.62,9.62,0,0,0-.95.55,5.67,5.67,0,0,1-1.06.55.86.86,0,0,1-.6.3,1.1,1.1,0,0,1-.5.3c-.2.07-.27.07-.2,0a.93.93,0,0,1-.5.26,1.88,1.88,0,0,0-.5.14l-.6.21-1.41.3a3.34,3.34,0,0,1-1.5.3,1.18,1.18,0,0,1-.35,0,1,1,0,0,0-.36-.05h-1a.09.09,0,0,1-.1-.1.9.9,0,0,1-.8-.3c-.14,0-.19,0-.15,0s0-.09-.15-.16a1.86,1.86,0,0,1-.6-.4,1.57,1.57,0,0,1-.4-.9.28.28,0,0,0-.1-.25c-.07,0-.11-.15-.11-.35s0-.22,0-.25a.42.42,0,0,1-.05-.25l-.1-.5a1,1,0,0,0-.05-.3.45.45,0,0,1,.15-.41,3.81,3.81,0,0,1,.1-1v-.1a2.56,2.56,0,0,1,.31-.8l.4-.8c.06-.2.11-.39.15-.55a.75.75,0,0,1,.35-.46l.4-.5-.1.1.3-.8.5-.6,1.1-1.81a.82.82,0,0,0,.36-.45,1.74,1.74,0,0,1,.35-.55l.4-.5,1.5-1.71.9-.8,1.61-1.3,1.6-.9h.45c.1,0,.39,0,.86-.1Zm-7.32,7.92.4-.3,1.2-.8,1.1-.81,1.41-.9h-.1a12.68,12.68,0,0,0,1.3-1.1l1-1v-.5a.29.29,0,0,1,.1-.2h-.26q-.15,0-.45.3l-.2.1a1,1,0,0,0-.65.4c-.23.27-.42.41-.55.41a9.94,9.94,0,0,0-2.16,2,22.56,22.56,0,0,1-2.15,2.26Z"/><path id="_Compound_Path_25" data-name="&lt;Compound Path&gt;" class="cls-1" d="M230.8,43a1.33,1.33,0,0,1,.6.15c.2.1.4.22.61.35a.65.65,0,0,1,.6.4c.2.14.3.27.3.4a.44.44,0,0,0,.15.4.45.45,0,0,1,.15.4V45a1.92,1.92,0,0,1,.3,1.26,5.8,5.8,0,0,1-.3,1l-.7.9-.91,1.21-.3.3a1.55,1.55,0,0,0-.3.4.32.32,0,0,0-.1.2l-.2.2-.2.2a8,8,0,0,0-.8,1.65c-.27.71-.47,1.26-.6,1.66l-.4,1.3a.4.4,0,0,1,0,.25s-.05.12-.05.25a1.62,1.62,0,0,0,.1.51,1.41,1.41,0,0,0,.05.4,1.83,1.83,0,0,1,.05.4l.3.6v-.1c0-.13.1-.1.3.1h-.1l.7.5h.4a.32.32,0,0,1,.2.1.28.28,0,0,0,.2.1c.07-.13.14-.16.2-.1a.4.4,0,0,0,.3.1.7.7,0,0,1,.5-.2h.51c.13,0,.21,0,.25-.1s.11-.1.25-.1l.8-.2.6-.2.9-.5L237,55.81l1-.6,1-1a4.75,4.75,0,0,1,1-.75l1-.91,3.51-3.3a.73.73,0,0,1,.45-.36,3.76,3.76,0,0,0,.75-.25l.51.4c.26.34.33.57.2.71a4,4,0,0,0-.51.7,17.73,17.73,0,0,0-2.3,2.31,14.36,14.36,0,0,1-1.31,1.5l-.2.2-.2.2-2.3,1.81-.71.7q-1.09.7-2.25,1.5a7.5,7.5,0,0,1-2.26,1.11.28.28,0,0,0-.2.1.45.45,0,0,1-.3.1,4.91,4.91,0,0,1-1.5.2,3.85,3.85,0,0,1-1,.1c0,.13-.13.2-.4.2a1.06,1.06,0,0,1-.5-.1,3.62,3.62,0,0,0-1-.2l.1.1a.3.3,0,0,1-.2-.1h-.1l-.7-.4a3.31,3.31,0,0,1-1-1.06,3.48,3.48,0,0,1-.5-1.25c-.07-.53-.13-1.05-.2-1.55a4,4,0,0,1,.3-1.86V54l-.6.4-.8.7a2.78,2.78,0,0,1-1.06.8,12,12,0,0,0-1.15.61l-.2.1a8,8,0,0,1-1.35.7,9.34,9.34,0,0,0-1,.4.53.53,0,0,0-.2.05.46.46,0,0,1-.2,0,.32.32,0,0,1-.35,0,.79.79,0,0,0-.45-.1l-.5.1a1.22,1.22,0,0,1-.7-.3,3.23,3.23,0,0,0-.46-.1s-.08-.17-.15-.5c0-.14-.05-.22-.15-.25s-.15-.09-.15-.15l.2-1.41.41-.8-.2.1.3-.7.5-.9.8-1.21a.38.38,0,0,0,.1-.3l.5-.7,2.31-2.91-.2.1a3.23,3.23,0,0,1,.4-.35c.13-.1.26-.22.4-.35l1.3-1.1.81-.71-.1.2,1.8-1.3a5.75,5.75,0,0,1,1.76-.8A6.94,6.94,0,0,1,230.8,43ZM220.17,54.91q-.19.41,0,.45a1.05,1.05,0,0,0,.65-.15c.3-.13.64-.3,1-.5s.65-.36.85-.5c1-.6,1.85-1.15,2.56-1.65a18.22,18.22,0,0,0,2.15-1.86L229,49.09l.2-.2a2.7,2.7,0,0,1,.5-.7,2.77,2.77,0,0,0,.5-.7l1.1-1.4a.25.25,0,0,1-.05-.25,1,1,0,0,0,.05-.36l-.4-.4h-.7a1.75,1.75,0,0,0-1.1.4l-.81.41a3.43,3.43,0,0,0-.5.3c-.4.26-.67.43-.8.5l-.1.2-1.3,1.1-.56.55a2,2,0,0,1-.55.45,1.2,1.2,0,0,1-.8.81l-.2.5-1.7,2L221,53.51l-.7,1Z"/><path id="_Compound_Path_26" data-name="&lt;Compound Path&gt;" class="cls-1" d="M299.4,24.32h1.3a10.55,10.55,0,0,1,1.31.1,8.69,8.69,0,0,0,1.3.1h1.3a1.18,1.18,0,0,1,.61.35c.26.24.4.42.4.56V26a2.9,2.9,0,0,1-.66.65,1.37,1.37,0,0,1-.85.35l-1.95-.15c-.64,0-1.29-.05-2-.05-1-.07-1.84-.1-2.51-.1h-4.41c-.87,0-2,0-3.41.1-1.14.14-2.22.25-3.26.35s-2.05.19-3.06.25a1.9,1.9,0,0,0-.5.1,2.84,2.84,0,0,0-.8.1,1.75,1.75,0,0,0-.4.05,1.83,1.83,0,0,1-.5.05c-.4.07-.84.14-1.31.2a8.26,8.26,0,0,1-1.2.1,4.05,4.05,0,0,1-1.3.25,9,9,0,0,0-1.61.26,1.18,1.18,0,0,1-.55.05,2.76,2.76,0,0,0-1.05.15l-2.91.7a1.18,1.18,0,0,0-.35,0,5.93,5.93,0,0,0-1.16.25.78.78,0,0,0-.3.05.71.71,0,0,1-.3.05l-4.51,1-1.1,1.21-2.51,3.21A9.76,9.76,0,0,1,260,36.91c-.43.5-.85,1-1.25,1.55l-2.71,3a16.1,16.1,0,0,1-1.6,1.91l-1.5,1.7-1.11,1.41-1.2,1.2a13.88,13.88,0,0,0-1.91,1.66c-.53.56-1.07,1.12-1.6,1.65l-1,1.4-.81,1.41-.2.2a.28.28,0,0,0-.1.2.55.55,0,0,1-.1.4,1.8,1.8,0,0,0-.3.7,2,2,0,0,0-.1.8,1,1,0,0,1,0,.26,1.18,1.18,0,0,0-.05.35.48.48,0,0,1-.1.25.79.79,0,0,0-.1.45.45.45,0,0,0,.1.25.45.45,0,0,1,.1.25l-.1.1h.1a.71.71,0,0,0,.05.3q0,.1.15.3.11.6.9.6c.2.27.74.4,1.61.4a2.72,2.72,0,0,0,1.6-.4l1.11-.4a4.41,4.41,0,0,1,.9-.4,3.49,3.49,0,0,1,.8-.2.28.28,0,0,0,.2-.1c.07,0,.1,0,.1,0s0,0,.1,0l.5-.2h.3l.51-.4.8-.6a.53.53,0,0,0,.2,0,5.07,5.07,0,0,1,.6-.25l.9-.51h-.1l1-.6-.1.1.6-.4a1.83,1.83,0,0,1,.5-.5l.6-.4a.79.79,0,0,0,.45-.2,2.62,2.62,0,0,0,.35-.3l.8-.4-.3.1a1.25,1.25,0,0,1,.56-.45,1.75,1.75,0,0,0,.55-.36.27.27,0,0,0,.2-.14c.06-.11.13-.16.2-.16a6.85,6.85,0,0,1,1.4-1.4l.8-.7v.2A1.11,1.11,0,0,1,264,50a.19.19,0,0,0,.15-.1c0-.07.15-.1.35-.1.46,0,.7.26.7.8l-.4.4a.86.86,0,0,1-.3.6l-1.41,1.31-1.2,1.2-1,.6-.7.7a.79.79,0,0,0-.46.2,1.54,1.54,0,0,0-.35.4l-1.6,1.41v-.2c-.27.27-.47.4-.6.4l-.1.2a.66.66,0,0,1-.5.2,1.22,1.22,0,0,1-.46.3,1.61,1.61,0,0,0-.45.3,2.61,2.61,0,0,1-.7.4,1.55,1.55,0,0,1-.4.1l-.5.2h.1l-.8.61a1.33,1.33,0,0,0-.4,0,2.44,2.44,0,0,1-.51.05.64.64,0,0,1-.6.4c-.13,0-.22,0-.25,0a.21.21,0,0,1-.15.05,1.09,1.09,0,0,1-.8.3l-1.51.4-.9.3a.21.21,0,0,0-.15,0,.17.17,0,0,1-.15.05,1.23,1.23,0,0,1-1,0,.71.71,0,0,0-.3,0,.62.62,0,0,1-.3,0l-.81-.1a7.51,7.51,0,0,1-1.75-.55,4.56,4.56,0,0,1-.95-.75,2,2,0,0,1-.71-1.31v-.6a.2.2,0,0,0,0-.15A.4.4,0,0,1,242,58v-.2a2.36,2.36,0,0,1,.1-1.1V55.51l.41-1.7,2-4.92.8-1.6,1.21-2.51.5-.8a1.14,1.14,0,0,1,.4-.8l-.2.2.5-.8a2,2,0,0,0,.35-.51c.1-.2.22-.46.35-.8l2-3.51c.2-.2.4-.41.6-.65a1,1,0,0,0,.3-.55,8,8,0,0,1,.55-1.1l.65-1.11a.77.77,0,0,0,.25-.4,1,1,0,0,1,.26-.4H253l-3.72.8a8.8,8.8,0,0,1-1.85.45,13.87,13.87,0,0,1-2,.15c-.53.14-1.12.25-1.75.36s-1.26.18-1.86.25h-1.4a2.93,2.93,0,0,0-.9-.1,1.64,1.64,0,0,0-.71-.26,1,1,0,0,1-.6-.25q-.19,0-.6-.6l.1-.8c0-.27.3-.4.9-.4h.91c.06,0,.1,0,.1.05s0,0,.1,0h2.2l3.61-.5a14.89,14.89,0,0,0,4.12-.8l3.91-.71,1.6-.3.45-.9a1.8,1.8,0,0,1,.55-.7l.41-.6.9-1.21.7-.9v.1a.63.63,0,0,1,.4-.6.4.4,0,0,0,.1-.3l.9-.8.71-.91,1.2-1.2a.32.32,0,0,0,.1-.2l1.5-1.5,2-1.51.4-.2a6.84,6.84,0,0,0,.9-.55c.34-.24.44-.35.3-.35l1-.6.6-.41a3.76,3.76,0,0,1,1-.1,1.75,1.75,0,0,1,.5.2,2.1,2.1,0,0,1,.5.31l.41.4a.79.79,0,0,0,.2.6v1a.62.62,0,0,0-.2.45v.45a2.48,2.48,0,0,1-.05.45,2,2,0,0,0-.05.46l-.31.9a1.67,1.67,0,0,0-.2.7l-1.3,1.91a3.2,3.2,0,0,0-.45.65c-.17.3-.22.42-.15.35l-1.2,1.5-.11.2,1.31-.3a5.25,5.25,0,0,0,.85-.05c.23,0,.52-.08.85-.15l2.71-.6,1.41-.3,1.6-.4a6.74,6.74,0,0,1,1.6-.2,12.39,12.39,0,0,1,1.91-.3c.74-.07,1.37-.1,1.91-.1a1.61,1.61,0,0,1,.8-.25,6.64,6.64,0,0,1,.8-.05,1.57,1.57,0,0,1,.5-.1l3-.3,3.11-.41a.62.62,0,0,0,.3-.05,1.56,1.56,0,0,1,.5,0h2.61c.6,0,1.17,0,1.7-.05s1.17-.05,1.91-.05ZM247.65,47.89c.13-.2.32-.45.55-.75a7,7,0,0,1,.55-.65l2.51-2.71,1.1-1.2.55-.56a2.15,2.15,0,0,0,.46-.75l2.5-2.71,2.31-2.6,1.2-1.61,1.41-1.6c.13-.2.28-.42.45-.65l.45-.66a25.82,25.82,0,0,0-3,.81l-2.1.4v.1l-1.71,2.81-1.5,2.1A26.26,26.26,0,0,0,252,39.92a27.37,27.37,0,0,0-1.3,2.66l-.4.6c-.6,1-1.14,1.94-1.61,2.81-.2.13-.3.26-.3.4Zm10.73-17.65.7-.3,2.91-.6.95-.2a7.43,7.43,0,0,0,1-.3l.2-.2,1.2-1.81,1.5-2.31v.1l.61-.9a.29.29,0,0,1,.1-.2l.2-.2a1.7,1.7,0,0,1,.3-.8l.5-.8c.13-.47.12-.79-.05-1s-.65,0-1.45.46a8.17,8.17,0,0,0-2.21,1.9l-.4.3-.4.5-.4.4-.46.45q-.24.26-.15.06a2.1,2.1,0,0,1-.7.6l-1.1,1.1-.5.8-1.11,1.21-.8,1Zm9.83-3.91v-.1l.1-.1Z"/><path id="_Compound_Path_27" data-name="&lt;Compound Path&gt;" class="cls-1" d="M266.6,45.18a.35.35,0,0,0,.2,0,.78.78,0,0,1,.3-.05,2,2,0,0,0,.46,0c.16,0,.31.15.45.55a2.06,2.06,0,0,1-.3,1.61l-.51.6-.3.5-.1.2a3.14,3.14,0,0,0-.45.71c-.17.33-.35.66-.55,1l-.3.5.2-.1-.8,1.7-.6,2.51a1,1,0,0,0-.1.45v.35a1.94,1.94,0,0,0,.4,1.16c.26.37.83.48,1.7.35l1.86-.35a8.15,8.15,0,0,0,1.95-.66l1.81-.9c.53-.26,1-.5,1.3-.7l1.31-.9a6.27,6.27,0,0,1,1-.6,2,2,0,0,0,.8-.61l1.6-1.3.51-.4,1.7-1.3,1.2-1.11a.31.31,0,0,1,.11-.2.73.73,0,0,1,1,0,1.08,1.08,0,0,1-.1,1h-.1l-.4.71a8.13,8.13,0,0,1-.61.75c-.26.3-.33.39-.2.25l-1.7,1.4-.7.51L277,54.11a5.54,5.54,0,0,1-.85.7l-.75.5a14.81,14.81,0,0,1-1.71,1.06c-.47.23-.93.48-1.4.75l-.8.4a8.11,8.11,0,0,0-1.11.55,5.19,5.19,0,0,1-1.3.55,11.2,11.2,0,0,1-1.2.4,4,4,0,0,1-1,.2,1.17,1.17,0,0,1-.8.16,8.39,8.39,0,0,0-1-.06h-.6a.65.65,0,0,1-.25,0,1,1,0,0,0-.26-.05.16.16,0,0,1-.14,0,.46.46,0,0,0-.26-.05c-.13,0-.21,0-.25-.1s-.11-.1-.25-.1l.1.1a.29.29,0,0,1-.2-.1,1,1,0,0,0-.2-.15c-.07,0-.13-.11-.2-.25a1.43,1.43,0,0,1-.5-.65,5.81,5.81,0,0,1-.3-.85,5.22,5.22,0,0,1-.1-1.21c.07-.6.13-1.15.2-1.65a10.94,10.94,0,0,1,.3-1.45,1,1,0,0,0,.25-.56,1.57,1.57,0,0,1,.25-.65.6.6,0,0,1,.1-.35,1.9,1.9,0,0,0,.2-.35l.3-.8c.14-.07.2-.14.2-.2a.69.69,0,0,1,.2-.5l.91-1.51.5-.7.2-.6,1.2-1.21Zm3.81-6.92.2.2a.34.34,0,0,1,.1.26.37.37,0,0,0,.1.25l.31.3v.1l.1,1.1-.35.35-.66.65-.2.1-.8.5c-.13,0-.2,0-.2,0s0-.05-.1-.05-.1,0-.1-.1c-.34,0-.5-.23-.5-.7l-.6-.2v-.7a3.41,3.41,0,0,0,.3-.55,1.11,1.11,0,0,1,.3-.45v-.2a.54.54,0,0,1,.2-.46,4.37,4.37,0,0,1,.6-.35h.6c.07,0,.1,0,.1.05s0,0,.1,0h.1Z"/><path id="_Compound_Path_28" data-name="&lt;Compound Path&gt;" class="cls-1" d="M293.18,42.78a1,1,0,0,1,.2.5,1.31,1.31,0,0,1,0,1.4c-.07.2-.14.4-.2.6a7,7,0,0,1-.3.71.53.53,0,0,1-.05.2.35.35,0,0,0-.05.2c-.27.47-.52,1-.75,1.45a9.36,9.36,0,0,1-1.16,1.76l-.5.6v.3a.4.4,0,0,0,.15.25l.25.25.4.3.6.5a3.51,3.51,0,0,0,.76.3c.23.07.48.14.75.2h.6a.4.4,0,0,0,.3-.1,2,2,0,0,0,.8-.1,1.9,1.9,0,0,0,.4-.25.64.64,0,0,1,.31-.15,1.26,1.26,0,0,0,.4-.15,1.65,1.65,0,0,0,.4-.25,2.11,2.11,0,0,0,1.2-.7,4.23,4.23,0,0,0,.65-.55,2.4,2.4,0,0,1,.86-.55v.1a.34.34,0,0,0,.2-.1,1,1,0,0,0,.25,0,.69.69,0,0,1,.45,0,.88.88,0,0,0,.1.4,1,1,0,0,0,.05.35.92.92,0,0,1,.05.25.28.28,0,0,0-.1.2.21.21,0,0,1-.05.15.18.18,0,0,0,0,.15,3.5,3.5,0,0,0-.85.7,2.45,2.45,0,0,1-.76.6l.1-.1a10.75,10.75,0,0,1-1.25.91,12.81,12.81,0,0,1-1.65.8,6,6,0,0,1-2.41.4h-.55a3,3,0,0,1-.76-.1l-1.2-.5a.4.4,0,0,1-.25-.15.4.4,0,0,0-.25-.15,4.9,4.9,0,0,1-.8-.91l-.3-.5-.1.1-.91,1.21-.4.5-.7.8-2.51,2-1.2,1a2.1,2.1,0,0,1-.75.65c-.24.1-.49.22-.75.35l-1.91.9a5.45,5.45,0,0,1-1.3.21.58.58,0,0,0-.35.1c-.1.06-.22,0-.36-.1a1.77,1.77,0,0,1-.55-.31l-.35-.3a1.16,1.16,0,0,1-.35-.65,6.58,6.58,0,0,1-.05-.85,6.38,6.38,0,0,1,.5-2.11,1.33,1.33,0,0,0,.1-.6l.4-1q.21-.4.45-.9a4.73,4.73,0,0,0,.36-.91l.6-1.2,1-1.81.25-.5a3.82,3.82,0,0,0,.25-.6v.1a.49.49,0,0,1,.15-.35.4.4,0,0,0,.15-.25l.3-.5a2.83,2.83,0,0,0,.41-.7c.06-.2.13-.44.2-.71l.5-.9a5.81,5.81,0,0,1,.2-.55q.09-.26.9-.15a.73.73,0,0,1,.45.55,5,5,0,0,1,.05.55,1.66,1.66,0,0,1-.1.81l-.4,1-.4,1a7.18,7.18,0,0,1-.5,1c-.07,0-.1.07-.1.2a1,1,0,0,1-.1.41l-1,1.7.1-.2-2.1,4.11a8.77,8.77,0,0,0-.35,1.06,3.92,3.92,0,0,0-.15,1c0,.2.13.2.4,0a8,8,0,0,0,1.6-.6,12.61,12.61,0,0,0,1.41-.81l.8-.8,1.1-.8.6-.8.91-.7,1.6-1.81,1.2-1.7a1.16,1.16,0,0,0,.41-.61c.13-.06.2-.13.2-.2l.2-1.2a.49.49,0,0,1,.2-.25c.06,0,.1-.12.1-.25a7.38,7.38,0,0,1,1.7-3.31l.4-.4q.1-.3.3-.3l.36,0a1.82,1.82,0,0,1,.45-.05h.1Z"/><path id="_Compound_Path_29" data-name="&lt;Compound Path&gt;" class="cls-1" d="M308,42.38a1.33,1.33,0,0,1,.8.5.46.46,0,0,0,.3.25c.14,0,.2.15.2.35v.8a.74.74,0,0,1,0,.3,1.27,1.27,0,0,0-.06.5c-.06,0-.1.1-.1.3L308,46.79l-1.3,1.4-.4.2a2.14,2.14,0,0,1-1.11.91l-.2.3-.4.3a5.73,5.73,0,0,0-.55.3l-.55.3a10.16,10.16,0,0,1-2,1.2c-.37.14-.68.27-.95.4l-.2.3-.7.61-.45.8a3,3,0,0,0-.36.7,2,2,0,0,1-.25.45.25.25,0,0,0-.05.15,2.11,2.11,0,0,1-.1.7,1.89,1.89,0,0,0-.1.51l.2.9a.42.42,0,0,0,.05.25.78.78,0,0,1,.15.25l.21.3q0-.09.3,0a1.46,1.46,0,0,0,.4.1h.6c.6-.13,1.05-.22,1.35-.25a9.14,9.14,0,0,0,1.46-.35l2.3-.9a.44.44,0,0,0,.26-.15.41.41,0,0,1,.24-.15H306l.2-.1a.55.55,0,0,1,.4-.21,4,4,0,0,1,.85-.55c.23-.1.48-.21.75-.35l.9-.5L310,54l1.3-.8.7-.61.4-.2.91-.5,1.8-1.4.7-.5c.14-.07.41-.24.81-.5s.5-.37.3-.3l1-.91h.2a.17.17,0,0,0,.15,0,.42.42,0,0,1,.25-.05c.34.2.52.4.55.6a4.46,4.46,0,0,1,0,.81.86.86,0,0,1-.3.6l-.5.5c-.07,0-.2.1-.4.3a1.65,1.65,0,0,1-.5.2l-2.71,2.21c-.13.13-.23.2-.3.2a.4.4,0,0,1-.3.1l-.6.5a.45.45,0,0,0-.25.1,2.3,2.3,0,0,1-.35.2l.1-.1c.2-.2,0-.08-.46.35a5.85,5.85,0,0,1-1.15.85l-.7.4-.7.31-.6.5-.71.5-.3.1a10.93,10.93,0,0,0-.95.55,5.93,5.93,0,0,1-1.05.55.87.87,0,0,1-.61.3,1.1,1.1,0,0,1-.5.3c-.2.07-.26.07-.2,0a.9.9,0,0,1-.5.26,1.88,1.88,0,0,0-.5.14l-.6.21-1.41.3a3.34,3.34,0,0,1-1.5.3,1.23,1.23,0,0,1-.35,0,1,1,0,0,0-.35-.05h-1a.09.09,0,0,1-.1-.1.91.91,0,0,1-.8-.3c-.13,0-.18,0-.15,0s0-.09-.15-.16a2.12,2.12,0,0,1-.6-.4,1.64,1.64,0,0,1-.4-.9c0-.13,0-.21-.1-.25s-.1-.15-.1-.35a.42.42,0,0,0-.05-.25.42.42,0,0,1-.05-.25l-.1-.5a1.53,1.53,0,0,0-.05-.3.4.4,0,0,1,.15-.41,3.42,3.42,0,0,1,.1-1v-.1a2.44,2.44,0,0,1,.3-.8l.4-.8a3.85,3.85,0,0,0,.15-.55.75.75,0,0,1,.35-.46l.4-.5-.1.1.3-.8.5-.6,1.11-1.81a.81.81,0,0,0,.35-.45,1.93,1.93,0,0,1,.35-.55l.4-.5,1.51-1.71.9-.8,1.6-1.3,1.61-.9h.45c.1,0,.38,0,.85-.1ZM300.7,50.3l.4-.3,1.2-.8,1.11-.81,1.4-.9h-.1a12.92,12.92,0,0,0,1.31-1.1l1-1v-.5a.29.29,0,0,1,.1-.2h-.25q-.15,0-.45.3l-.2.1a1,1,0,0,0-.66.4c-.23.27-.41.41-.55.41a9.67,9.67,0,0,0-2.15,2,23.9,23.9,0,0,1-2.16,2.26Z"/></g><path id="_Path_2" data-name="&lt;Path&gt;" class="cls-1" d="M184.59,49.55c-6.9,8-15.13,14.29-23.54,20.69-1.26,1,0,3.13,1.27,2.15,8.56-6.51,17-12.88,24-21.08,1-1.21-.72-3-1.77-1.76Z"/></g></g></g></svg>